<svg width="24" height="24" viewBox="0 0 24 24" fill="none" xmlns="http://www.w3.org/2000/svg">
<path fill-rule="evenodd" clip-rule="evenodd" d="M23.5253 3.19827C23.2921 2.60566 22.7537 1.77133 21.9904 1.18351C21.5496 0.844114 21.0234 0.519639 20.3006 0.305445C19.5301 0.0771484 18.5811 0 17.4 0H6.60006C5.41894 0 4.46995 0.0771484 3.69943 0.305445C2.97661 0.519639 2.45047 0.844114 2.00969 1.18351C1.24635 1.77133 0.707958 2.60566 0.474733 3.19827C0.00479186 4.39219 0 5.74691 0 6.59999V17.4C0 18.2531 0.00479186 19.6078 0.474733 20.8017C0.707958 21.3943 1.24635 22.2287 2.00969 22.8165C2.45047 23.1559 2.97661 23.4804 3.69943 23.6946C4.46995 23.9229 5.41894 24 6.60006 24H17.4C18.5811 24 19.5301 23.9229 20.3006 23.6946C21.0234 23.4804 21.5496 23.1559 21.9904 22.8165C22.7537 22.2287 23.2921 21.3943 23.5253 20.8017C23.9953 19.6078 24 18.2531 24 17.4V6.59999C24 5.74691 23.9953 4.39219 23.5253 3.19827ZM17.508 16.507C17.446 16.8023 17.3329 17.0801 17.1584 17.3303C16.9846 17.5798 16.7616 17.7842 16.5018 17.9376C16.2387 18.0929 15.9629 18.1813 15.6682 18.2407C15.1152 18.3522 14.7367 18.3774 14.3812 18.3059C14.0383 18.2369 13.7476 18.0793 13.5153 17.8662C13.1709 17.5504 12.9562 17.1238 12.9093 16.678C12.8543 16.1554 13.0284 15.5973 13.4207 15.1861C13.6186 14.9786 13.8673 14.8145 14.1993 14.6856C14.5467 14.5509 14.9301 14.4704 15.5194 14.3515C15.6746 14.3202 15.8299 14.289 15.9851 14.2576C16.1893 14.2165 16.3644 14.1642 16.5055 13.9917C16.6478 13.8179 16.65 13.6097 16.65 13.4L16.6502 8.11099C16.6502 7.70649 16.4688 7.59628 16.0825 7.67048C15.8064 7.72436 9.87691 8.92019 9.87691 8.92019C9.54244 9.00097 9.42491 9.11029 9.42491 9.52526L9.42504 17.275C9.42504 17.5789 9.40916 17.8485 9.34523 18.1528C9.28314 18.4482 9.16998 18.726 8.99556 18.9762C8.82168 19.2257 8.59873 19.4301 8.33894 19.5834C8.07594 19.7388 7.8 19.8316 7.50537 19.891C6.95232 20.0025 6.57391 20.0277 6.21835 19.9562C5.87546 19.8873 5.58481 19.7252 5.3524 19.5121C5.00807 19.1963 4.80743 18.7697 4.76054 18.3239C4.70557 17.8014 4.86548 17.2432 5.25787 16.832C5.45584 16.6245 5.70446 16.4604 6.0364 16.3316C6.38388 16.1968 6.76722 16.1163 7.35655 15.9974C7.51174 15.9662 7.66706 15.9349 7.82225 15.9035C8.02645 15.8624 8.20155 15.8102 8.34264 15.6376C8.48386 15.4651 8.50002 15.2583 8.50002 15.05C8.50002 13.4101 8.50002 6.12498 8.50002 6.12498C8.50002 6.00471 8.51049 5.92468 8.51658 5.88443C8.54513 5.69659 8.62056 5.53545 8.75658 5.42127C8.8696 5.32632 9.01507 5.26095 9.20127 5.22131L9.204 5.22076L16.3373 3.78157C16.3991 3.76898 16.9147 3.67745 16.9726 3.67239C17.3582 3.63912 17.5747 3.89226 17.5747 4.30313L17.5751 15.625C17.5751 15.9289 17.572 16.2025 17.508 16.507Z" fill="black"/>
</svg>
