<svg width="12" height="12" viewBox="0 0 12 12" fill="none" xmlns="http://www.w3.org/2000/svg">
<path fill-rule="evenodd" clip-rule="evenodd" d="M0.599502 3.60351L5.87182 9.83901V9.83901C5.96833 9.94387 6.10173 10.0032 6.24118 10.0032C6.38063 10.0032 6.51404 9.94387 6.61054 9.83901L11.8805 3.60351C11.9656 3.50357 12.0082 3.37193 11.9985 3.23868C11.9889 3.10543 11.9277 2.98196 11.8291 2.89651L10.9411 2.11801C10.7351 1.93708 10.4278 1.96178 10.2509 2.17351L6.33166 6.90001C6.30887 6.92761 6.27565 6.94348 6.2407 6.94348C6.20575 6.94348 6.17254 6.92761 6.14974 6.90001L2.2291 2.17301C2.14399 2.07172 2.02392 2.00954 1.89502 2.00001C1.7659 1.98802 1.63761 2.03094 1.53934 2.11901L0.650862 2.89651C0.551669 2.98181 0.489995 3.10543 0.479982 3.23901C0.470272 3.37243 0.513468 3.50416 0.599502 3.60351Z" fill="black"/>
</svg>
