<svg width="162" height="24" viewBox="0 0 162 24" fill="none" xmlns="http://www.w3.org/2000/svg">
<path fill-rule="evenodd" clip-rule="evenodd" d="M4.64829 0V19.5916H17.8138V18.3307H5.96448V13.9263H22.4612V24H17.8138L17.4841 23.9969H0V0H4.64829ZM5.84588 12.3074H10.4614V6.46149H5.84588V12.3074ZM11.6922 12.3074H16.3077V6.46149H11.6922V12.3074ZM17.8457 12.3078H22.4612V0H17.8457V12.3078ZM97.148 4.18094C97.148 5.13069 96.3819 5.90031 95.4357 5.90031C94.49 5.90031 93.7234 5.13069 93.7234 4.18094C93.7234 3.23119 94.49 2.46156 95.4357 2.46156C96.3819 2.46156 97.148 3.23119 97.148 4.18094V4.18094ZM161.537 12.6946V19.6558H159.168V13.1111C159.168 11.1748 158.201 10.3658 156.605 10.3658C154.864 10.3658 153.631 11.4196 153.631 14.2387V19.6558H151.262V8.33134H153.631V10.0472H153.68C154.405 8.74823 155.614 7.96356 157.331 7.96356C159.724 7.96356 161.537 9.26294 161.537 12.6946V12.6946ZM149.207 8.30744L145.474 19.6558H143.306L140.657 11.5258L137.984 19.6558H135.816L132.083 8.30744H134.684L136.923 16.4874L139.501 8.30744H141.789L144.366 16.4874L146.606 8.30744H149.207ZM121.808 13.982C121.808 16.1723 123.28 17.5925 125.404 17.5925C127.528 17.5925 129 16.1723 129 13.982C129 11.7913 127.528 10.3711 125.404 10.3711C123.28 10.3711 121.808 11.7913 121.808 13.982V13.982ZM131.397 13.982C131.397 17.4558 128.766 19.9996 125.233 19.9996C121.699 19.9996 119.068 17.4558 119.068 13.982C119.068 10.5079 121.699 7.96356 125.233 7.96356C128.766 7.96356 131.397 10.5079 131.397 13.982V13.982ZM115.808 10.3795V16.2874C115.808 17.0924 116.14 17.4589 116.948 17.4589H117.518V19.6558H116.449C114.525 19.6558 113.481 18.6064 113.481 16.7512V10.3795H111.533V8.35346H113.481V3.83706H115.808V8.35346H118.04V10.3795H115.808ZM109.821 12.6946V19.6558H107.451V13.1111C107.451 11.1748 106.484 10.3658 104.889 10.3658C103.148 10.3658 101.915 11.4196 101.915 14.2387V19.6558H99.5459V8.33134H101.915V10.0472H101.963C102.689 8.74823 103.898 7.96356 105.614 7.96356C108.007 7.96356 109.821 9.26294 109.821 12.6946V12.6946ZM94.0655 19.6558H96.4634V8.30744H94.0655V19.6558ZM82.7632 18.8007L83.8285 16.6733C84.8685 17.2845 86.0546 17.7492 87.3854 17.7492C88.5228 17.7492 89.1274 17.4066 89.1274 16.6976C89.1274 16.2325 88.8857 15.8899 87.9417 15.4253L85.9095 14.422C84.2158 13.6147 83.5621 12.4649 83.5621 11.1686C83.5621 9.08901 85.0867 7.96356 87.5306 7.96356C88.8131 7.96356 90.2165 8.30611 91.4022 8.84471L90.4343 10.9239C89.5872 10.557 88.5472 10.1897 87.458 10.1897C86.4175 10.1897 86.079 10.5322 86.079 11.046C86.079 11.5842 86.3936 11.9268 87.3615 12.3919L89.442 13.3948C90.8937 14.0794 91.6681 15.0579 91.6681 16.5746C91.6681 18.8742 89.9262 19.9996 87.3128 19.9996C85.7156 19.9996 84.0462 19.5593 82.7632 18.8007V18.8007ZM78.6536 13.982C78.6536 11.8635 77.3028 10.3711 75.2285 10.3711C73.1542 10.3711 71.8039 11.8635 71.8039 13.982C71.8039 16.1002 73.1542 17.5925 75.2285 17.5925C77.3028 17.5925 78.6536 16.1002 78.6536 13.982V13.982ZM69.064 13.9657C69.064 10.1879 71.5574 7.9317 74.5111 7.9317C76.3513 7.9317 77.5856 8.74071 78.288 9.96707H78.3362V2.46156H80.7088V19.6319H78.3362V17.9643H78.288C77.5856 19.1902 76.3513 19.9996 74.5111 19.9996C71.5574 19.9996 69.064 17.7434 69.064 13.9657V13.9657ZM66.6666 12.6946V19.6558H64.2976V13.1111C64.2976 11.1748 63.3301 10.3658 61.7346 10.3658C59.9945 10.3658 58.761 11.4196 58.761 14.2387V19.6558H56.392V8.33134H58.761V10.0472H58.8093C59.5346 8.74823 60.7437 7.96356 62.46 7.96356C64.8534 7.96356 66.6666 9.26294 66.6666 12.6946V12.6946ZM51.2542 13.982C51.2542 11.8635 49.9035 10.3711 47.8292 10.3711C45.7549 10.3711 44.4046 11.8635 44.4046 13.982C44.4046 16.1002 45.7549 17.5925 47.8292 17.5925C49.9035 17.5925 51.2542 16.1002 51.2542 13.982V13.982ZM41.6646 13.982C41.6646 10.2145 44.1581 7.96356 47.1118 7.96356C48.9515 7.96356 50.1863 8.77081 50.8882 9.99406H50.9369V8.33045H53.3095V19.6327H50.9369V17.9696H50.8882C50.1863 19.1924 48.9515 19.9996 47.1118 19.9996C44.1581 19.9996 41.6646 17.7492 41.6646 13.982V13.982ZM30.7284 17.9643H30.6797V19.6319H28.3071V2.46156H30.6797V9.96707H30.7284C31.4303 8.74071 32.665 7.9317 34.5048 7.9317C37.4585 7.9317 39.9523 10.1879 39.9523 13.9657C39.9523 17.7434 37.4585 19.9996 34.5048 19.9996C32.665 19.9996 31.4303 19.1902 30.7284 17.9643V17.9643ZM37.5545 13.982C37.5545 11.8635 36.2038 10.3711 34.1295 10.3711C32.0556 10.3711 30.7045 11.8635 30.7045 13.982C30.7045 16.1002 32.0556 17.5925 34.1295 17.5925C36.2038 17.5925 37.5545 16.1002 37.5545 13.982V13.982Z" fill="black"/>
</svg>
