<svg width="109" height="24" viewBox="0 0 109 24" fill="none" xmlns="http://www.w3.org/2000/svg">
<path fill-rule="evenodd" clip-rule="evenodd" d="M108.123 14.4373C108.049 14.437 107.98 14.4368 107.848 14.4368C106.913 14.4368 106.296 14.1627 105.651 13.1551C105.021 12.1536 103.966 10.4684 103.966 10.4684L108.553 4.07741H104.57L100.928 9.14883V0H97.5994V17.5653H100.928V11.9897C100.928 11.9897 102.792 14.9178 103.359 15.8203C104.271 17.2126 105.488 17.5805 107.508 17.5805L108.481 17.5781V14.438C108.294 14.438 108.206 14.4376 108.123 14.4373H108.123ZM77.6319 14.8638H77.6317C77.558 14.8635 77.4884 14.8632 77.3568 14.8632C76.4222 14.8632 75.8049 14.5892 75.1593 13.5816C74.53 12.58 73.4753 10.8949 73.4753 10.8949L78.0621 4.50386H74.0786L70.437 9.57528V0.42645H67.1083V17.9918H70.437V12.4162C70.437 12.4162 72.3012 15.3442 72.8672 16.2467C73.7801 17.639 74.997 18.007 77.0168 18.007L77.9899 18.0046V14.8644C77.8027 14.8644 77.7147 14.8641 77.6319 14.8638ZM25.5469 18.0357C23.4739 18.0357 21.781 17.6553 20.412 16.2483L22.5422 14.1181C23.2458 14.8216 24.482 15.0689 25.5657 15.0689C26.8782 15.0689 27.5059 14.6318 27.5059 13.852C27.5059 13.5284 27.4303 13.2615 27.2398 13.0514C27.0688 12.8804 26.7831 12.7465 26.3457 12.6898L24.7105 12.4621C23.512 12.2907 22.5992 11.8912 21.9905 11.2636C21.3625 10.6172 21.0588 9.70428 21.0588 8.54448C21.0588 6.0719 22.9227 4.2645 26.0032 4.2645C27.9433 4.2645 29.4079 4.72113 30.5679 5.88133L28.4759 7.97319C27.6678 7.1656 26.6231 7.17102 26.0126 7.17419C25.9762 7.17438 25.9413 7.17456 25.9082 7.17456C24.7482 7.17456 24.273 7.84054 24.273 8.42983C24.273 8.60121 24.3299 8.84812 24.5393 9.05745C24.7105 9.22884 24.995 9.39983 25.4713 9.45696L27.1063 9.68549C28.3236 9.85607 29.1984 10.2364 29.7691 10.8073C30.4918 11.5109 30.7767 12.5184 30.7767 13.7761C30.7767 16.5339 28.3999 18.0357 25.5469 18.0357ZM37.0804 18.0357C38.7348 18.0357 39.8763 17.5035 40.8655 16.5143C42.2386 15.1409 42.2368 13.3256 42.2347 11.375L42.2346 11.1493L42.2347 10.9237C42.2368 8.97429 42.2386 7.15966 40.8655 5.78626C39.8763 4.79705 38.7348 4.2645 37.0804 4.2645C35.4257 4.2645 34.2846 4.79705 33.296 5.78626C31.9224 7.15951 31.9243 8.97389 31.9263 10.9231L31.9265 11.1493L31.9263 11.3757C31.9243 13.326 31.9224 15.1411 33.296 16.5143C34.2846 17.5035 35.4257 18.0357 37.0804 18.0357ZM36.9501 7.24965C37.5589 7.24965 38.0343 7.51612 38.2816 7.83934C38.5856 8.23846 38.7758 8.69509 38.7758 11.1673C38.7758 13.6422 38.5856 14.0793 38.2816 14.4788C38.0343 14.802 37.5589 15.0869 36.9501 15.0869C36.3415 15.0869 35.866 14.802 35.6192 14.4788C35.3152 14.0793 35.1245 13.6422 35.1245 11.1673C35.1245 8.69509 35.3152 8.23846 35.6192 7.83934C35.866 7.51612 36.3415 7.24965 36.9501 7.24965ZM87.4539 16.7276C88.4429 17.7168 89.6411 18.2493 91.2195 18.2493C93.7875 18.2493 95.8602 16.8223 96.3547 13.8367H92.9697C92.7604 14.5978 92.3421 15.2825 91.2387 15.2825C90.63 15.2825 90.174 15.0352 89.9263 14.7116C89.6221 14.3125 89.4131 13.8367 89.4131 11.3629C89.4131 8.89036 89.6221 8.41493 89.9263 8.01542C90.174 7.69223 90.63 7.44492 91.2387 7.44492C92.3421 7.44492 92.7604 8.12929 92.9697 8.89036H96.3547C95.8602 5.90441 93.7875 4.47772 91.2195 4.47772C89.6411 4.47772 88.4429 5.01068 87.4539 5.99987C86.0816 7.37296 86.0834 9.18694 86.0855 11.1375L86.0856 11.3629L86.0855 11.5883C86.0835 13.5383 86.0816 15.3545 87.4539 16.7276ZM62.064 18.9198V17.6274C61.4675 17.9138 60.9151 18.0361 60.3024 18.0361C58.7239 18.0361 57.5258 17.5035 56.5375 16.5143C55.1639 15.1418 55.1658 13.3265 55.1678 11.3775L55.168 11.1497L55.1678 10.9218C55.1658 8.97222 55.1639 7.15917 56.5375 5.78665C57.5258 4.79745 58.7239 4.2645 60.3024 4.2645C61.5017 4.2645 62.7048 4.62205 63.6417 5.33359C64.692 6.13181 65.4098 7.36871 65.4098 8.92801L65.4215 18.9258C65.4215 22.2481 63.6149 23.9788 60.3024 24L58.8263 23.9948V21.0256L60.0365 21.0176C60.8327 21.0176 62.064 20.7024 62.064 18.9198ZM59.0927 14.5164C59.34 14.8399 59.7963 15.0872 60.4051 15.0872C61.4894 15.0872 61.9112 14.4253 62.1243 13.6806V8.65671C61.9112 7.91082 61.4894 7.24965 60.4051 7.24965C59.7963 7.24965 59.34 7.49692 59.0927 7.82015C58.7883 8.21965 58.5793 8.69508 58.5793 11.1677C58.5793 13.6414 58.7883 14.1172 59.0927 14.5164ZM53.7498 10.2524L53.7414 17.9202L50.4149 17.915L50.421 10.26C50.421 8.515 50.239 8.27678 49.9463 7.89376L49.9264 7.86768C49.6795 7.54449 49.2041 7.23166 48.5953 7.23166C47.9864 7.23166 47.5114 7.54449 47.2641 7.86768C46.9595 8.26682 46.7695 8.52089 46.7695 10.2516L46.7661 17.9206L43.4403 17.9214L43.4412 10.2516L43.441 10.1084C43.439 8.83083 43.4364 7.16051 44.8107 5.78623C45.7995 4.79703 46.9409 4.2645 48.5953 4.2645C50.2505 4.2645 51.3915 4.79703 52.3801 5.78623C53.7541 7.15971 53.7518 8.7524 53.7499 10.1035L53.7498 10.2524ZM79.2621 2.84228L82.5782 2.84785V0.426857L79.2625 0.42645L79.2621 2.84228ZM79.0489 4.47772L82.4332 4.47972L82.4337 12.7509C82.4391 14.1431 83.3792 14.8343 84.4844 14.8343L84.8755 14.8351V17.9816L84.1721 17.9892C80.7944 17.968 79.0532 16.1175 79.0532 12.8627L79.0489 4.47772ZM3.331 6.5907H2.35038L0 17.7044H0.871664L1.2608 15.8677H1.29193C1.42683 16.5318 1.73814 17.0403 2.22586 17.3931C2.71357 17.7459 3.29987 17.9223 3.98475 17.9223C4.66963 17.9223 5.27668 17.7693 5.8059 17.4631C6.33513 17.157 6.77874 16.7601 7.13675 16.2724C7.49475 15.7847 7.76714 15.2347 7.95393 14.6225C8.14072 14.0102 8.23411 13.398 8.23411 12.7857C8.23411 12.3084 8.17185 11.8648 8.04732 11.4549C7.9228 11.045 7.73342 10.6922 7.47918 10.3964C7.22495 10.1007 6.90845 9.86722 6.52969 9.696C6.15093 9.52478 5.70214 9.43917 5.18329 9.43917C4.56067 9.43917 4.01329 9.58963 3.54113 9.89057C3.06898 10.1915 2.69282 10.591 2.41264 11.0891H2.38151L3.331 6.5907ZM5.33116 16.7082C4.91089 16.978 4.42058 17.1129 3.86022 17.1129C3.48665 17.1129 3.16238 17.0481 2.88739 16.9184C2.6124 16.7886 2.3841 16.6148 2.20251 16.3969C2.02091 16.179 1.88601 15.9222 1.79781 15.6264C1.7096 15.3307 1.6655 15.0116 1.6655 14.6692C1.6655 14.2126 1.73554 13.7274 1.87563 13.2138C2.01572 12.7001 2.22326 12.2254 2.49825 11.7895C2.77324 11.3537 3.11568 10.9905 3.52557 10.7C3.93546 10.4094 4.4102 10.2641 4.9498 10.2641C5.75921 10.2641 6.3455 10.4924 6.7087 10.949C7.07189 11.4056 7.25349 12.0075 7.25349 12.7546C7.25349 13.2423 7.18085 13.7456 7.03557 14.2644C6.89029 14.7833 6.67497 15.2529 6.3896 15.6731C6.10424 16.0934 5.75142 16.4384 5.33116 16.7082ZM9.26143 19.8369C8.99162 19.8369 8.71664 19.8213 8.43646 19.7902L8.24967 20.584C8.39495 20.5944 8.53763 20.61 8.67772 20.6307C8.81781 20.6515 8.95531 20.6618 9.09021 20.6618C9.97225 20.6618 10.6208 20.3038 11.0359 19.5878L16.7484 9.67265H15.6899L11.9854 16.4903H11.9542L10.8024 9.67265H9.77508L11.2538 17.7044L10.5222 18.9652C10.3977 19.1727 10.2317 19.3699 10.0241 19.5567C9.81659 19.7435 9.56236 19.8369 9.26143 19.8369Z" fill="black"/>
</svg>
