<svg width="24" height="24" viewBox="0 0 24 24" fill="none" xmlns="http://www.w3.org/2000/svg">
<path fill-rule="evenodd" clip-rule="evenodd" d="M24 6.32618H19.6241V5H24V6.32618ZM19.6241 8.04969H24V6.72415H19.6241V8.04969ZM9.81207 8.05066H14.1878V6.72448H9.81207V8.05066ZM14.1878 9.77416H9.81207V8.44814H14.1878V9.77416ZM0 11.4977H4.37571V10.172H0V11.4977ZM4.37571 13.2217H0V11.896H4.37571V13.2217ZM0 14.9455H4.37571V13.6195H0V14.9455ZM4.37571 16.6691H0V15.3428H4.37571V16.6691ZM4.37571 18.3926H0V17.0665H4.37571V18.3926ZM9.28182 18.3926H4.90611V17.0665H9.28182V18.3926ZM4.90611 16.6691H9.28182V15.343H4.90611V16.6691ZM9.28182 14.9455H4.90611V13.6195H9.28182V14.9455ZM9.81207 18.3926H14.1878V17.0665H9.81207V18.3926ZM14.1878 16.6691H9.81207V15.343H14.1878V16.6691ZM9.81207 14.9455H14.1878V13.6195H9.81207V14.9455ZM14.1878 13.2217H9.81207V11.896H14.1878V13.2217ZM9.81207 11.4977H14.1878V10.1721H9.81207V11.4977ZM19.0937 18.3926H14.718V17.0665H19.0937V18.3926ZM14.7182 16.6691H19.0939V15.343H14.7182V16.6691ZM19.0939 14.9455H14.7182V13.6195H19.0939V14.9455ZM14.7182 13.2217H19.0939V11.896H14.7182V13.2217ZM19.0939 11.4977H14.7182V10.1721H19.0939V11.4977ZM19.6241 18.3926H24V17.0665H19.6241V18.3926ZM24 16.6691H19.6241V15.3428H24V16.6691ZM19.6241 14.9452H24V13.619H19.6241V14.9452ZM24 13.2217H19.6241V11.8955H24V13.2217ZM19.6241 11.4977H24V10.1715H19.6241V11.4977ZM24 9.77368H19.6241V8.44798H24V9.77368Z" fill="black"/>
</svg>
