<svg width="24" height="24" viewBox="0 0 24 24" fill="none" xmlns="http://www.w3.org/2000/svg">
<path fill-rule="evenodd" clip-rule="evenodd" d="M16 12C16 14.2091 14.2091 16 12 16C9.79085 16 8 14.2091 8 12C8 9.79085 9.79085 7.99995 12 7.99995C14.2091 7.99995 16 9.79085 16 12M18.4056 7.03436C17.6104 7.03436 16.9656 6.38964 16.9656 5.59434C16.9656 4.79904 17.6104 4.15436 18.4056 4.15436C19.2009 4.15436 19.8456 4.79904 19.8456 5.59434C19.8456 6.38964 19.2009 7.03436 18.4056 7.03436M12 18.1621C8.59671 18.1621 5.83784 15.4032 5.83784 12C5.83784 8.59671 8.59671 5.83779 12 5.83779C15.4033 5.83779 18.1622 8.59671 18.1622 12C18.1622 15.4032 15.4033 18.1621 12 18.1621M23.9278 7.05242C23.8695 5.77511 23.6667 4.90283 23.37 4.1395C23.0633 3.35044 22.6531 2.68118 21.9859 2.01406C21.3188 1.3469 20.6496 0.936629 19.8605 0.629961C19.0972 0.333296 18.2248 0.13047 16.9476 0.0721656C15.6676 0.0137662 15.259 0 12 0C8.741 0 8.33234 0.0137662 7.05242 0.0721656C5.77511 0.13047 4.90283 0.333296 4.13954 0.629961C3.35044 0.936629 2.68123 1.3469 2.01406 2.01406C1.34695 2.68118 0.936676 3.35044 0.630008 4.1395C0.333343 4.90283 0.13047 5.77511 0.0722133 7.05242C0.0138139 8.3323 0 8.74095 0 12C0 15.259 0.0138139 15.6676 0.0722133 16.9475C0.13047 18.2248 0.333343 19.0971 0.630008 19.8605C0.936676 20.6495 1.34695 21.3188 2.01406 21.9859C2.68123 22.6531 3.35044 23.0633 4.13954 23.37C4.90283 23.6667 5.77511 23.8695 7.05242 23.9277C8.33234 23.9862 8.741 24 12 24C15.259 24 15.6676 23.9862 16.9476 23.9277C18.2248 23.8695 19.0972 23.6667 19.8605 23.37C20.6496 23.0633 21.3188 22.6531 21.9859 21.9859C22.6531 21.3188 23.0633 20.6496 23.37 19.8605C23.6667 19.0971 23.8695 18.2248 23.9278 16.9475C23.9862 15.6676 24 15.259 24 12C24 8.741 23.9862 8.3323 23.9278 7.05242" fill="black"/>
</svg>
