<svg width="24" height="25" viewBox="0 0 24 25" fill="none" xmlns="http://www.w3.org/2000/svg">
<path fill-rule="evenodd" clip-rule="evenodd" d="M6.54933 18.7826C4.69312 18.7826 3.17772 18.4419 1.95211 17.1792L3.85985 15.2717C4.48924 15.9015 5.59603 16.1231 6.56619 16.1231C7.74136 16.1231 8.30273 15.7318 8.30273 15.0336C8.30273 14.7438 8.23556 14.5049 8.06491 14.3168C7.91177 14.1637 7.65637 14.044 7.26474 13.993L5.80039 13.7893C4.72737 13.6358 3.91059 13.2779 3.36565 12.7161C2.80319 12.1374 2.5313 11.3201 2.5313 10.2819C2.5313 8.06822 4.19946 6.44983 6.95811 6.44983C8.6949 6.44983 10.0062 6.85885 11.0445 7.89756L9.1714 9.77051C8.40531 9.00406 7.40048 9.05522 6.87294 9.05522C5.8344 9.05522 5.40877 9.65163 5.40877 10.179C5.40877 10.3326 5.45987 10.5535 5.6475 10.741C5.80039 10.8945 6.05532 11.0475 6.48161 11.0988L7.94524 11.3031C9.0356 11.456 9.81867 11.7963 10.3298 12.3077C10.9768 12.9377 11.2312 13.8397 11.2312 14.9655C11.2312 17.4346 9.1038 18.7826 6.54933 18.7826V18.7826ZM20.812 2.65198C19.1822 1.4319 17.3726 0.612779 15.0901 0.236805V11.1131L18.3508 6.57311H21.9168L17.81 12.2949C17.81 12.2949 18.7543 13.8038 19.3184 14.7001C19.8962 15.6022 20.4485 15.8476 21.2855 15.8476C21.5357 15.8476 21.5353 15.8489 21.8524 15.8489V18.6631L20.981 18.6653C19.1728 18.6653 18.0834 18.3356 17.2665 17.0864C16.7591 16.2785 15.0901 13.6569 15.0901 13.6569V18.6518H12.1102V0.00168544C12.0728 0.00150486 12.0374 0 11.9999 0C8.14761 0 5.49099 0.928077 3.18934 2.65198C-0.131824 5.13741 0.000724263 8.45232 0.000724263 11.9981C0.000724263 15.546 -0.131824 18.865 3.18934 21.3508C5.49099 23.0749 8.14761 24.0021 11.9999 24.0021C15.8517 24.0021 18.5093 23.0749 20.812 21.3508C24.1324 18.865 23.9993 15.546 23.9993 11.9981C23.9993 8.45232 24.1324 5.13741 20.812 2.65198V2.65198Z" fill="black"/>
</svg>
