<svg width="24" height="24" viewBox="0 0 24 24" fill="none" xmlns="http://www.w3.org/2000/svg">
<path fill-rule="evenodd" clip-rule="evenodd" d="M0 16.0763C0 16.3783 0.107972 16.6067 0.323872 16.7615C0.539794 16.9163 0.770591 16.971 1.01629 16.9257C1.24708 16.8804 1.40902 16.7974 1.50212 16.6766C1.59517 16.5558 1.64172 16.3557 1.64172 16.0763V12.7919C1.64172 12.5578 1.56169 12.3596 1.40161 12.1973C1.24155 12.035 1.04611 11.9538 0.815286 11.9538C0.591926 11.9538 0.400217 12.035 0.240135 12.1973C0.0800525 12.3596 0 12.5578 0 12.7919V16.0763V16.0763ZM2.56864 17.4807C2.56864 17.6997 2.64496 17.8638 2.79758 17.9733C2.95022 18.0828 3.14566 18.1376 3.3839 18.1376C3.6296 18.1376 3.82874 18.0828 3.98139 17.9733C4.13401 17.8639 4.21033 17.6997 4.21033 17.4807V9.82465C4.21033 9.59814 4.13028 9.4037 3.97022 9.24139C3.81014 9.07907 3.6147 8.99789 3.3839 8.99789C3.16054 8.99789 2.96881 9.07907 2.80875 9.24139C2.64867 9.40373 2.56864 9.59814 2.56864 9.82465V17.4807V17.4807ZM5.12611 17.8431C5.12611 18.062 5.20428 18.2263 5.36063 18.3358C5.51698 18.4452 5.71801 18.5 5.96373 18.5C6.20196 18.5 6.3974 18.4452 6.55002 18.3358C6.70267 18.2263 6.77899 18.062 6.77899 17.8431V10.8553C6.77899 10.6212 6.69894 10.4211 6.53888 10.255C6.3788 10.0889 6.18709 10.0059 5.96373 10.0059C5.73291 10.0059 5.53561 10.0889 5.37182 10.255C5.20803 10.4211 5.12613 10.6212 5.12613 10.8553V17.8431H5.12611ZM7.69474 17.8771C7.69474 18.2923 7.97021 18.5 8.52117 18.5C9.07211 18.5 9.34758 18.2923 9.34758 17.8771V6.55159C9.34758 5.91736 9.15772 5.55873 8.77801 5.47567C8.53232 5.41526 8.29033 5.48699 8.05209 5.69085C7.81384 5.89471 7.69472 6.18161 7.69472 6.55159V17.8771H7.69474ZM10.3081 18.2055V5.88339C10.3081 5.49078 10.4235 5.25673 10.6543 5.18121C11.1531 5.06041 11.6482 5 12.1396 5C13.2787 5 14.3397 5.27181 15.3225 5.81543C16.3053 6.35906 17.1001 7.10087 17.7068 8.04089C18.3136 8.98092 18.6654 10.0172 18.7622 11.1498C19.2164 10.9534 19.7003 10.8553 20.214 10.8553C21.2564 10.8553 22.148 11.229 22.8888 11.9765C23.6296 12.724 24 13.6225 24 14.672C24 15.729 23.6296 16.6313 22.8888 17.3788C22.148 18.1263 21.2601 18.5 20.2252 18.5L10.5091 18.4887C10.442 18.466 10.3918 18.4245 10.3583 18.3641C10.3248 18.3037 10.3081 18.2508 10.3081 18.2055V18.2055V18.2055Z" fill="black"/>
</svg>
