<svg width="179" height="24" viewBox="0 0 179 24" fill="none" xmlns="http://www.w3.org/2000/svg">
<path fill-rule="evenodd" clip-rule="evenodd" d="M35.0223 0H39.2401L36.4384 13.2832H36.5021L42.388 7.39673H47.8646L40.0902 14.794L44.9688 23.6063H40.216L36.0292 15.0149H35.966L34.1407 23.6063H30.0175L35.0223 0ZM19.2012 0.408599H14.9839L14.1022 4.43809H18.3201L19.2012 0.408599ZM0.660722 7.39658H3.7144L4.43824 4.06039L8.97065 2.58063L7.93172 7.39658H11.7092L11.048 10.4813H7.27049L5.72864 17.564C5.63396 17.9412 5.53978 18.5082 5.53978 19.1369C5.53978 20.1132 6.20102 20.7108 7.14527 20.7108C7.90067 20.7108 8.65607 20.554 9.19157 20.3331L8.46722 23.6067C8.34044 23.6342 8.21079 23.6637 8.07928 23.6936L8.07926 23.6936L8.07925 23.6936L8.07923 23.6936L8.07917 23.6936L8.07915 23.6936C7.45932 23.8345 6.79813 23.9849 6.20102 23.9849C3.3367 23.9849 1.32195 22.8518 1.32195 19.735C1.32195 18.4772 1.57392 17.2489 1.85695 15.959L3.05317 10.4813H0L0.660722 7.39658ZM105.88 20.9148C109.027 20.9148 110.004 18.7427 110.663 16.1304H109.185C107.139 16.1304 103.74 16.4765 103.74 19.2146C103.74 20.3482 104.809 20.9148 105.88 20.9148ZM110.004 21.1352H109.94C108.492 22.9611 107.044 24 104.715 24C101.789 24 99.7121 22.3624 99.7121 19.3729C99.7121 14.0215 105.691 13.6122 109.657 13.6122H111.136C111.262 13.1709 111.262 12.699 111.262 12.2271C111.262 10.5911 109.5 10.1187 108.021 10.1187C106.163 10.1187 104.369 10.5911 102.701 11.3776L103.298 8.0093C105.093 7.38115 106.918 7.03349 108.807 7.03349C112.049 7.03349 115.102 8.23022 115.102 12.0383C115.102 13.2883 114.57 15.9259 114.047 18.5218C113.661 20.4353 113.28 22.3262 113.119 23.6218H109.562L110.004 21.1352ZM13.441 7.39658H17.6588L14.1969 23.6067H9.9791L13.441 7.39658ZM27.3115 10.2927C28.4762 10.2927 29.5772 10.5762 30.3967 11.1117L31.4357 7.64875C30.3015 7.30312 28.7913 7.0201 27.2173 7.0201C21.394 7.0201 17.6481 11.3316 17.6481 16.9976C17.6481 21.1844 20.3551 23.9851 24.5419 23.9851C25.9269 23.9851 27.3115 23.8588 28.6019 23.2297L29.0738 19.8925C27.9727 20.4275 26.6823 20.711 25.6434 20.711C22.747 20.711 22.0547 18.6011 22.0547 16.4942C22.0547 13.4405 23.9432 10.2927 27.3115 10.2927ZM66.1221 7.39658H63.069L62.4077 10.4813H65.4614L64.2652 15.959C63.9816 17.2489 63.7297 18.4772 63.7297 19.735C63.7297 22.8518 65.7444 23.9849 68.6087 23.9849C69.2067 23.9849 69.8693 23.8341 70.4894 23.693C70.62 23.6633 70.7486 23.634 70.8744 23.6067L71.5988 20.3331C71.0643 20.554 70.3089 20.7108 69.5535 20.7108C68.6087 20.7108 67.9475 20.1132 67.9475 19.1369C67.9475 18.5082 68.0422 17.9412 68.1364 17.564L69.6787 10.4813H73.4567L74.1175 7.39658H70.34L71.3789 2.58063L66.846 4.06039L66.1221 7.39658ZM61.6584 13.1888C61.6584 9.06462 59.014 7.01984 55.0171 7.01984C49.6972 7.01984 45.794 11.8673 45.794 16.9032C45.794 21.7191 48.9418 23.9848 53.6005 23.9848C55.3312 23.9848 57.126 23.5761 58.762 23.0726L59.298 19.7349C57.7231 20.4598 56.055 20.9001 54.3243 20.9001C51.6264 20.9001 50.05 19.9421 49.8474 17.3934H49.8438C49.8415 17.3482 49.8386 17.3033 49.8357 17.2584L49.8357 17.2582C49.8291 17.1561 49.8224 17.0536 49.8224 16.9454C49.8224 16.9305 49.8229 16.9156 49.8234 16.9007L49.8235 16.9004C49.824 16.8854 49.8245 16.8704 49.8245 16.8553C49.8245 16.8476 49.8242 16.8403 49.824 16.8328L49.8236 16.8186L49.8235 16.808H49.8265C49.8453 15.6983 50.0887 14.6029 50.5117 13.5925C51.322 11.5293 52.4684 10.1041 54.9535 10.1041C56.7162 10.1041 57.6294 11.0794 57.6294 12.8111C57.6294 13.1888 57.5974 13.5349 57.5348 13.9126H51.7634C51.3892 15.1862 51.3236 16.0404 51.3159 16.808H61.2492C61.5001 15.6123 61.6584 14.4161 61.6584 13.1888ZM76.2835 7.39678C76.1889 7.90072 76.0631 8.56195 75.9374 9.19112L72.9784 23.6064H77.1957L78.8643 15.8961L78.8946 15.7728C79.429 13.5958 80.2399 10.2927 83.0506 10.2927C84.1211 10.2927 85.0343 11.0486 85.0343 12.2443C85.0343 13.2196 84.7192 14.7309 84.4988 15.7062L82.7991 23.6064H87.0165L88.6851 15.8961L88.7364 15.6835C89.2675 13.4803 90.036 10.2927 92.8713 10.2927C93.9418 10.2927 94.8545 11.0486 94.8545 12.2443C94.8545 13.2196 94.5389 14.7309 94.3195 15.7062L92.6194 23.6064H96.8372L98.5374 15.864C98.8835 14.5431 99.2607 12.9055 99.2607 11.4578C99.2607 9.00226 97.1833 7.0201 94.7598 7.0201C92.4936 7.0201 90.1328 7.9954 89.0628 10.1043H88.9996C88.7792 8.15269 86.7966 7.0201 84.876 7.0201C82.8933 7.0201 81.0364 7.90072 79.9033 9.56882H79.8407L80.2184 7.39678H76.2835ZM127.632 10.6973C127.178 10.451 126.013 10.1043 124.818 10.1043C123.559 10.1043 121.985 10.451 121.985 11.7403C121.985 12.5953 122.942 13.2252 124.056 13.9584C125.606 14.9793 127.462 16.2005 127.462 18.5084C127.462 22.7263 123.779 23.9851 120.159 23.9851C118.459 23.9851 116.76 23.7336 115.217 23.0093L116.13 19.6415C117.326 20.3022 118.522 20.9004 120.159 20.9004C121.576 20.9004 123.055 20.4275 123.055 19.107C123.055 17.9439 121.97 17.2485 120.766 16.4767C119.265 15.5147 117.579 14.4341 117.579 12.1817C117.579 8.3731 121.261 7.0201 124.598 7.0201C126.14 7.0201 127.713 7.30312 128.545 7.51793L127.632 10.6973ZM133.379 7.39658H130.325L129.665 10.4813H132.718L131.522 15.959C131.239 17.2489 130.987 18.4772 130.987 19.735C130.987 22.8518 133.001 23.9849 135.866 23.9849C136.463 23.9849 137.125 23.8345 137.744 23.6936C137.876 23.6637 138.006 23.6342 138.132 23.6067L138.856 20.3331C138.321 20.554 137.565 20.7108 136.81 20.7108C135.866 20.7108 135.205 20.1132 135.205 19.1369C135.205 18.5082 135.299 17.9412 135.393 17.564L136.935 10.4813H140.713L141.374 7.39658H137.596L138.635 2.58063L134.103 4.06039L133.379 7.39658ZM158.922 9.56866C159.048 8.87638 159.174 8.15254 159.3 7.39663H163.329L162.762 10.4508H162.826C163.581 8.68753 165.658 7.01995 167.61 7.01995C168.145 7.01995 168.712 7.04998 169.215 7.17673L168.334 11.3004C167.862 11.1426 167.264 11.0484 166.729 11.0484C163.739 11.0484 162.29 13.7234 161.755 16.3362L160.245 23.6067H156.027L158.922 9.56866ZM149.353 7.01984C153.351 7.01984 155.995 9.06462 155.995 13.1888C155.995 14.4161 155.837 15.6123 155.586 16.808H145.653C145.66 16.0404 145.726 15.1862 146.1 13.9126H151.871C151.934 13.5349 151.966 13.1888 151.966 12.8111C151.966 11.0794 151.053 10.1041 149.29 10.1041C146.805 10.1041 145.658 11.5293 144.849 13.5925C144.425 14.6029 144.182 15.6983 144.163 16.808H144.16C144.16 16.8253 144.162 16.8396 144.162 16.8553C144.162 16.8628 144.161 16.8702 144.161 16.8777C144.16 16.9003 144.159 16.9229 144.159 16.9454C144.159 17.0536 144.166 17.1561 144.172 17.2583C144.175 17.3032 144.178 17.3481 144.181 17.3934H144.184C144.387 19.9421 145.963 20.9001 148.662 20.9001C150.392 20.9001 152.06 20.4598 153.634 19.7349L153.099 23.0726C151.463 23.5761 149.668 23.9848 147.937 23.9848C143.278 23.9848 140.131 21.7191 140.131 16.9032C140.131 11.8673 144.035 7.01984 149.353 7.01984ZM175.182 6.42891C177.189 6.42891 178.827 8.06341 178.827 10.0756C178.827 12.0832 177.189 13.7172 175.182 13.7172C173.174 13.7172 171.535 12.0832 171.535 10.0756C171.535 8.06341 173.174 6.42891 175.182 6.42891V6.42891ZM173.79 7.93361H175.424C176.405 7.93361 176.889 8.32912 176.889 9.13746C176.889 9.82211 176.455 10.3174 175.786 10.3174L177.002 12.2064H176.262L175.069 10.3174H174.486V12.2064H173.79V7.93361ZM174.486 9.77172H175.312C175.848 9.77172 176.194 9.66024 176.194 9.1054C176.194 8.62131 175.759 8.47929 175.312 8.47929H174.486V9.77172ZM175.194 13.1751C176.868 13.1751 178.131 11.8211 178.131 10.0756C178.131 8.32912 176.868 6.9751 175.194 6.9751C173.498 6.9751 172.231 8.32912 172.231 10.0756C172.231 11.8211 173.498 13.1751 175.194 13.1751V13.1751Z" fill="black"/>
</svg>
