<svg width="24" height="24" viewBox="0 0 24 24" fill="none" xmlns="http://www.w3.org/2000/svg">
<path fill-rule="evenodd" clip-rule="evenodd" d="M9.522 14.635L9.52125 7.84387L16.0057 11.2511L9.522 14.635ZM23.76 6.66708C23.76 6.66708 23.5252 5.0016 22.806 4.26818C21.8932 3.30515 20.8703 3.30062 20.4015 3.24472C17.043 3 12.0052 3 12.0052 3H11.9948C11.9948 3 6.957 3 3.5985 3.24472C3.129 3.30062 2.10675 3.30515 1.19325 4.26818C0.474 5.0016 0.24 6.66708 0.24 6.66708C0.24 6.66708 0 8.62336 0 10.5789V12.4128C0 14.3691 0.24 16.3246 0.24 16.3246C0.24 16.3246 0.474 17.9901 1.19325 18.7235C2.10675 19.6865 3.306 19.6563 3.84 19.7568C5.76 19.9426 12 20 12 20C12 20 17.043 19.9924 20.4015 19.7477C20.8703 19.6911 21.8932 19.6865 22.806 18.7235C23.5252 17.9901 23.76 16.3246 23.76 16.3246C23.76 16.3246 24 14.3691 24 12.4128V10.5789C24 8.62336 23.76 6.66708 23.76 6.66708V6.66708Z" fill="black"/>
</svg>
