<svg width="85" height="16" viewBox="0 0 85 16" fill="none" xmlns="http://www.w3.org/2000/svg">
<path fill-rule="evenodd" clip-rule="evenodd" d="M27.8769 3.38461V2.15384C27.8769 1.96922 28 1.78461 28.2462 1.78461H29.5385C29.7231 1.78461 29.9077 1.90768 29.9077 2.15384V3.38461C29.9077 3.56922 29.7846 3.75384 29.5385 3.75384H28.2462C28 3.75384 27.8769 3.63076 27.8769 3.38461ZM23.4462 15.0154V2.21538C23.4462 2.03076 23.5692 1.84615 23.8154 1.84615H24.9846C25.1692 1.84615 25.3538 1.96922 25.3538 2.21538V15.0769C25.3538 15.2615 25.2308 15.4461 24.984 15.4461H23.8154C23.6308 15.3846 23.4462 15.2615 23.4462 15.0154ZM27.9385 5.90768V15.0154C27.9385 15.2615 28.1231 15.3846 28.3077 15.4461H29.4154C29.6622 15.4461 29.7846 15.2615 29.7846 15.0769V5.90768C29.7846 5.66153 29.6 5.53845 29.4154 5.53845H28.3077C28.1231 5.53845 27.9385 5.72307 27.9385 5.90768ZM32.3077 15.0154V5.90768C32.3077 5.72307 32.4308 5.53845 32.6769 5.53845H33.7846C33.9692 5.53845 34.1538 5.66153 34.1538 5.90768V6.52307H34.2154C34.5846 6.03076 35.2 5.59999 36.1231 5.35384H36.1846C37.6 5.16922 38.7077 5.47691 39.4462 6.27691C40.0615 6.95384 40.4314 7.81538 40.4314 8.98399V15.0757C40.4314 15.2603 40.3083 15.4455 40.0615 15.4455H38.9538C38.7692 15.4455 38.5846 15.3231 38.5846 15.0757V9.47507C38.5846 7.81415 37.9071 6.95138 36.4923 6.95138C35.8154 6.95138 35.2 7.13599 34.7692 7.56676C34.3385 7.99753 34.1538 8.55199 34.1538 9.2283V15.0745C34.1538 15.2591 34.0308 15.4437 33.784 15.4437H32.6763C32.4308 15.3846 32.3077 15.2615 32.3077 15.0154ZM42.5846 2.21538V15.0154C42.5846 15.2615 42.7692 15.3846 42.9538 15.5077H44.0615C44.3077 15.5077 44.4308 15.3231 44.4308 15.1385V12.3077C44.4308 12.1846 44.4308 12.1243 44.4923 12.0615L45.7846 10.6461H45.8462L48.9846 15.3231C49.0474 15.3834 49.1698 15.4455 49.2923 15.4455H50.5231C50.8308 15.4455 50.9538 15.1378 50.8308 14.8923L47.3846 9.72307C47.2615 9.59999 47.2615 9.41538 47.3846 9.2923L50.2148 6.0923C50.4 5.90768 50.2769 5.53845 49.9692 5.53845H48.5538C48.4923 5.53845 48.3692 5.59999 48.3692 5.72307L44.4923 9.96922H44.4308V2.21538C44.4308 1.96922 44.2462 1.84615 44.0615 1.84615H42.9538C42.7077 1.84615 42.5846 2.03076 42.5846 2.21538ZM53.1077 12.3077V7.13845H52C51.8154 7.13845 51.6295 7.01538 51.6295 6.76922V5.90768C51.6923 5.72307 51.8154 5.53845 52 5.53845H53.1692V3.50768C53.1692 3.32307 53.2917 3.13845 53.5391 3.13845H54.5852C54.7698 3.13845 54.9545 3.26153 54.9545 3.50768V5.53845H57.0468C57.2314 5.53845 57.416 5.66153 57.416 5.90768V6.76922C57.416 6.95384 57.2935 7.13845 57.0468 7.13845H54.9545V12.1231C54.9545 12.6763 55.016 13.0461 55.2006 13.2917C55.3846 13.5385 55.6923 13.6615 56.1846 13.6615H56.6154C56.8 13.6615 56.9846 13.7846 56.9846 14.0308V15.0769C56.9846 15.2615 56.8622 15.4461 56.6154 15.4461H56.0615C55.016 15.4461 54.2782 15.2012 53.7852 14.7083C53.3538 14.0923 53.1077 13.3538 53.1077 12.3077ZM59.3846 5.90768V15.0154C59.3846 15.2615 59.5077 15.3846 59.6923 15.3237H60.8622C61.1089 15.3237 61.232 15.1385 61.232 14.9538V9.53845C61.232 7.93845 61.8474 7.13845 63.016 7.13845C63.1182 7.13845 63.2012 7.15717 63.2757 7.17396C63.3363 7.18762 63.3912 7.19999 63.4462 7.19999C63.6314 7.26153 63.8154 7.13845 63.8769 6.95384L64.0615 5.84615C64.0615 5.72307 64 5.53845 63.8148 5.47691C63.6289 5.41538 63.384 5.41538 63.1994 5.41538C62.7686 5.41538 62.4 5.47691 62.0302 5.72307C61.6622 5.96922 61.3545 6.27691 61.1692 6.64615H61.1077V5.90768C61.1077 5.66153 60.9231 5.53845 60.7385 5.53845H59.6923C59.5077 5.53845 59.3846 5.72307 59.3846 5.90768ZM72.3692 12.1846L73.1698 12.8C73.2923 12.9231 73.3551 13.1077 73.232 13.2308C72.8622 13.7846 72.3711 14.2769 71.8166 14.7077C71.1385 15.1378 70.2781 15.3846 69.3551 15.3846C68.0012 15.3846 66.8935 14.8923 66.032 13.9692C65.1705 13.0461 64.7397 11.7532 64.7397 10.2148C64.7397 8.61415 65.1698 7.38338 66.032 6.4603C66.8941 5.53722 67.9397 5.04491 69.2942 5.04491C70.5871 5.04491 71.6935 5.53722 72.4935 6.4603C73.2942 7.38338 73.7243 8.6763 73.7243 10.2757V10.4615C73.7243 10.6461 73.6018 10.8308 73.3551 10.8308H66.9551C66.7705 10.8308 66.5858 11.016 66.5858 11.2012C66.6474 11.8781 66.8935 12.4935 67.2628 12.9846C67.7557 13.5385 68.3711 13.8461 69.232 13.8461C69.6628 13.8461 70.032 13.7846 70.3397 13.6615C70.6474 13.5385 70.9551 13.3538 71.1403 13.1692C71.2855 13.0237 71.3883 12.8996 71.4733 12.7971L71.4733 12.797C71.532 12.7262 71.5822 12.6657 71.632 12.6154C71.6636 12.5844 71.6948 12.5378 71.7258 12.4913C71.7564 12.4455 71.787 12.3998 71.8178 12.3692C71.9385 12.1231 72.1846 12.0615 72.3692 12.1846ZM71.2 7.38461C71.6314 7.87691 71.8154 8.55445 71.8769 9.2923H66.5846C66.5846 8.61538 66.8308 7.99999 67.3218 7.44615C67.7538 6.8923 68.4308 6.58461 69.2308 6.58461C70.0911 6.58461 70.7692 6.83076 71.2 7.38461ZM83.0769 12.1846L83.8769 12.8C84 12.9231 84.0615 13.1077 83.9391 13.2308C83.5692 13.7846 83.0782 14.2769 82.5231 14.7077C81.8462 15.1378 80.9846 15.3846 80.0615 15.3846C78.7083 15.3846 77.6 14.8923 76.7397 13.9692C75.8782 13.0461 75.4462 11.7532 75.4462 10.2148C75.4462 8.61415 75.8769 7.38338 76.7397 6.4603C77.6 5.53722 78.6474 5.04491 80.0012 5.04491C81.2942 5.04491 82.4006 5.53722 83.2012 6.4603C84.0012 7.38338 84.432 8.6763 84.432 10.2757V10.4615C84.432 10.6461 84.3089 10.8308 84.0615 10.8308H77.6615C77.4757 10.8308 77.2917 11.016 77.2917 11.2012C77.3538 11.8781 77.5994 12.4935 77.9692 12.9846C78.4615 13.5385 79.0769 13.8461 79.9372 13.8461C80.3686 13.8461 80.7385 13.7846 81.0462 13.6615C81.3538 13.5385 81.6615 13.3538 81.8462 13.1692C81.9887 13.0259 82.0904 12.9035 82.1748 12.8019C82.2354 12.729 82.287 12.6668 82.3385 12.6154C82.3698 12.5844 82.4008 12.5378 82.4317 12.4913C82.4621 12.4455 82.4925 12.3998 82.5231 12.3692C82.6462 12.1231 82.8923 12.0615 83.0769 12.1846ZM82.5858 9.2923H77.2923C77.2923 8.61538 77.5385 7.99999 78.0308 7.44615C78.4628 6.8923 79.1385 6.58461 79.9391 6.58461C80.8 6.58461 81.4775 6.83076 81.9077 7.38461C82.3397 7.87691 82.5231 8.55445 82.5858 9.2923Z" fill="#161616"/>
<path d="M7.38462 0.430765C7.07693 -0.123081 6.27693 -0.123081 5.96924 0.430765L0.676928 10.0308C0.430774 10.5231 0.800004 11.0769 1.35385 11.0769H4.92308V14.7077C4.92308 15.0769 5.23077 15.3846 5.6 15.3846H7.69231C8.06154 15.3846 8.36924 15.0769 8.36924 14.7077V11.0769H7.38462C6.95385 11.0769 6.64616 10.7692 6.58462 10.4C6.58462 10.2769 6.58462 10.1538 6.64616 10.0295L9.6 4.67569L7.38462 0.430765V0.430765Z" fill="#39E09B"/>
<path d="M12.0615 0.430765C12.3692 -0.123081 13.1692 -0.123081 13.4769 0.430765L18.7692 10.0308C19.0154 10.5231 18.6462 11.0769 18.0923 11.0769H14.5846V14.7077C14.5846 15.0769 14.2769 15.3846 13.9071 15.3846H11.6923C11.3231 15.3846 11.0154 15.0769 11.0154 14.7077V11.0769H12C12.4308 11.0769 12.7385 10.7692 12.8 10.4C12.8 10.2769 12.8 10.1538 12.7385 10.0295L9.78462 4.67692L12.0615 0.430765V0.430765Z" fill="#28BF7B"/>
</svg>
