<svg width="97" height="24" viewBox="0 0 97 24" fill="none" xmlns="http://www.w3.org/2000/svg">
<path fill-rule="evenodd" clip-rule="evenodd" d="M40.5881 8.90319C40.0082 7.37844 38.6443 6.46858 36.8187 6.46858C34.8065 6.46858 33.1358 7.70955 32.0905 9.36764L40.1164 9.36804C40.4681 9.36764 40.6728 9.22291 40.5881 8.90319ZM30.9675 14.0699C31.2647 16.2172 32.7984 17.5259 34.9929 17.5259C36.2645 17.5259 37.399 17.0293 38.3261 16.2433L46.8794 16.2443C44.5934 20.6866 39.9051 23.9951 34.3424 23.9941C27.3273 23.9933 23.2358 19.3724 23.4459 13.3099C23.6847 6.39985 29.7313 -0.00117832 37.4265 0C44.484 0.000981933 48.5756 4.62235 48.3676 10.642C48.3434 11.3366 48.2588 12.0255 48.1219 12.7027C47.8778 13.9065 46.7947 14.0715 45.6343 14.0717L30.9675 14.0699ZM88.6669 11.023C88.7531 8.63098 87.2374 7.10113 84.9229 7.10073C81.8234 7.10054 79.6042 10.1983 79.5052 12.9434C79.4178 15.3751 80.9328 16.9042 83.247 16.9046C86.3475 16.9055 88.5665 13.8073 88.6669 11.023ZM71.625 13.3156C71.8644 6.40592 77.911 0.00489003 85.606 0.00547919C92.6641 0.00646112 96.7552 4.62803 96.5469 10.6481C96.3059 17.6003 90.2596 24.001 82.5217 24C75.5066 23.999 71.4155 19.3778 71.625 13.3156ZM16.2584 4.07529C17.3286 2.36415 18.4914 0.504773 22.229 0.504773H27.0949L13.7416 20.7051C12.3832 22.6949 10.8879 23.7456 8.89101 23.7456C8.89101 23.7456 5.97546 23.9726 4.95051 20.4152L0 0.504773H7.84957L10.7726 12.3926L11.3556 11.5106L11.3557 11.5105C12.9435 9.10811 15.6911 4.95119 15.6913 4.94998C15.8864 4.67016 16.071 4.375 16.2584 4.07529ZM64.7786 4.07576C65.8487 2.36448 67.0115 0.504773 70.7493 0.504773H75.6153L62.2616 20.7051C60.9032 22.6949 59.4083 23.7456 57.4111 23.7456C57.4111 23.7456 54.4957 23.9726 53.4708 20.4152L48.5202 0.504773H56.3696L59.2928 12.3926C60.6495 10.3404 64.2115 4.95136 64.2119 4.94998C64.4069 4.67033 64.5913 4.37535 64.7786 4.07583L64.7786 4.07576Z" fill="black"/>
</svg>
